<svg xmlns="http://www.w3.org/2000/svg" width="369" height="104" viewBox="0 0 369 104">
  <g id="Grupo_23394" data-name="Grupo 23394" transform="translate(9935 7222)">
    <path id="Trazado_5056" data-name="Trazado 5056" d="M17,0H352a17,17,0,0,1,17,17V87a17,17,0,0,1-17,17H17A17,17,0,0,1,0,87V17A17,17,0,0,1,17,0Z" transform="translate(-9935 -7222)" fill="#f3f9ff"/>
    <path id="Trazado_5057" data-name="Trazado 5057" d="M3.149-9.851v1.926H4.57v1.318H3.149v4.38a.955.955,0,0,0,.212.7.77.77,0,0,0,.564.209,1.574,1.574,0,0,0,.286-.026,1.736,1.736,0,0,0,.264-.07l.19,1.3a2.041,2.041,0,0,1-.542.194,3.013,3.013,0,0,1-.652.07A2.041,2.041,0,0,1,1.934-.421a2.518,2.518,0,0,1-.557-1.805v-4.38H.168V-7.925H1.377V-9.851ZM9.58-3.823H5.735V-5.251H9.58Zm3.105-4.1.1,1.143a2.835,2.835,0,0,1,.978-.948A2.609,2.609,0,0,1,15.1-8.071a2.494,2.494,0,0,1,1.93.751,3.367,3.367,0,0,1,.692,2.34V0h-1.78V-4.966a1.78,1.78,0,0,0-.37-1.271,1.511,1.511,0,0,0-1.124-.377,1.864,1.864,0,0,0-.93.231,1.923,1.923,0,0,0-.674.634V0H11.06V-7.925Z" transform="translate(-9793 -7182)" fill="#111e61"/>
    <path id="Trazado_5058" data-name="Trazado 5058" d="M3.149-9.851v1.926H4.57v1.318H3.149v4.38a.955.955,0,0,0,.212.7.77.77,0,0,0,.564.209,1.574,1.574,0,0,0,.286-.026,1.736,1.736,0,0,0,.264-.07l.19,1.3a2.041,2.041,0,0,1-.542.194,3.013,3.013,0,0,1-.652.07A2.041,2.041,0,0,1,1.934-.421a2.518,2.518,0,0,1-.557-1.805v-4.38H.168V-7.925H1.377V-9.851ZM9.58-3.823H5.735V-5.251H9.58Zm8.313-.286a4.738,4.738,0,0,1-.937,3.171A3.186,3.186,0,0,1,14.407.154,3.216,3.216,0,0,1,11.843-.937,4.713,4.713,0,0,1,10.9-4.109V-6.548a4.755,4.755,0,0,1,.938-3.171,3.184,3.184,0,0,1,2.556-1.1,3.2,3.2,0,0,1,2.556,1.1,4.73,4.73,0,0,1,.945,3.171Zm-1.78-2.712a3.42,3.42,0,0,0-.439-1.939,1.465,1.465,0,0,0-1.282-.629,1.456,1.456,0,0,0-1.278.629,3.443,3.443,0,0,0-.436,1.939v2.964a3.433,3.433,0,0,0,.443,1.95,1.471,1.471,0,0,0,1.285.633A1.446,1.446,0,0,0,15.681-1.9a3.5,3.5,0,0,0,.432-1.954Z" transform="translate(-9792 -7146)" fill="#111e61"/>
    <path id="Trazado_5059" data-name="Trazado 5059" d="M7.012,0H4.639V-11.963H1.748v-1.748l5.264-.508Z" transform="translate(-9668 -7175.5)" fill="#111e61"/>
    <path id="Trazado_5054" data-name="Trazado 5054" d="M-11264.942-6901h54.438" transform="translate(1575.224 -268.5)" fill="none" stroke="#022644" stroke-width="1"/>
    <path id="Trazado_5060" data-name="Trazado 5060" d="M6.064-3.721l.254.986h.059L6.621-3.7l3.4-10.518h2.529L7.471,0H5.215L.146-14.219H2.676Zm14.863.4H15.361L14.229,0h-2.4l5.225-14.219H19.3L24.463,0H22.051ZM16.045-5.3h4.209l-2.061-6.074h-.059ZM37.217,0H34.854L28.545-10.381l-.059.02V0H26.113V-14.219h2.373L34.795-3.848l.059-.02V-14.219h2.363ZM53.594-7.715H45.176V-9.687h8.418Zm0,4.141H45.176V-5.537h8.418Zm47.627-2.207a13.1,13.1,0,0,1,1.528-6.548,8.076,8.076,0,0,1,3.306-3.53l.059.01.439,1.309a7.681,7.681,0,0,0-2.241,3.193,14.274,14.274,0,0,0-.933,5.547v.2a14.341,14.341,0,0,0,.928,5.547A8.19,8.19,0,0,0,106.553,3.2l-.439,1.25h-.059A8.1,8.1,0,0,1,102.744.918a13.107,13.107,0,0,1-1.523-6.543ZM115.518,0h-2.373V-15.234h2.373Zm5.605-13.135v2.568h1.895v1.758h-1.895v5.84a1.273,1.273,0,0,0,.283.933,1.026,1.026,0,0,0,.752.278,2.1,2.1,0,0,0,.381-.034,2.315,2.315,0,0,0,.352-.093l.254,1.738a2.721,2.721,0,0,1-.723.259,4.017,4.017,0,0,1-.869.093A2.721,2.721,0,0,1,119.5-.562a3.357,3.357,0,0,1-.742-2.407v-5.84h-1.611v-1.758h1.611v-2.568ZM134.678-5.1h-5.127V-7h5.127Zm15.869-1.3h-6.221V-1.9h7.217V0h-9.59V-14.219h9.521v1.9h-7.148V-8.3h6.221Zm5.645-6.738v2.568h1.895v1.758h-1.895v5.84a1.273,1.273,0,0,0,.283.933,1.026,1.026,0,0,0,.752.278,2.1,2.1,0,0,0,.381-.034,2.315,2.315,0,0,0,.352-.093l.254,1.738a2.721,2.721,0,0,1-.723.259,4.017,4.017,0,0,1-.869.093,2.721,2.721,0,0,1-2.051-.767,3.357,3.357,0,0,1-.742-2.407v-5.84h-1.611v-1.758h1.611v-2.568ZM169.5-5.625A12.935,12.935,0,0,1,167.944.9,8.19,8.19,0,0,1,164.6,4.453h-.059l-.449-1.25A7.752,7.752,0,0,0,166.328-.02a14.461,14.461,0,0,0,.938-5.586v-.2a14.054,14.054,0,0,0-.962-5.552,8.388,8.388,0,0,0-2.212-3.247l.449-1.26h.059a8.164,8.164,0,0,1,3.34,3.555A12.936,12.936,0,0,1,169.5-5.781Z" transform="translate(-9869 -7162)" fill="#111e61"/>
    <path id="Trazado_5061" data-name="Trazado 5061" d="M1.25-5.781a13.1,13.1,0,0,1,1.528-6.548,8.076,8.076,0,0,1,3.306-3.53l.059.01.439,1.309a7.681,7.681,0,0,0-2.241,3.193A14.274,14.274,0,0,0,3.408-5.8v.2A14.341,14.341,0,0,0,4.336-.059,8.19,8.19,0,0,0,6.582,3.2l-.439,1.25H6.084A8.1,8.1,0,0,1,2.773.918,13.107,13.107,0,0,1,1.25-5.625ZM18.779,0H16.406V-11.963H13.516v-1.748l5.264-.508ZM29.834-7.822h3.711v2.168H29.834v4.229h-2.3V-5.654H23.8V-7.822h3.73v-3.955h2.3ZM38.057,0H35.684V-10.566h2.373Zm0-13.154H35.684v-2.08h2.373ZM50.02-5.625A12.935,12.935,0,0,1,48.462.9a8.19,8.19,0,0,1-3.345,3.555h-.059L44.609,3.2A7.752,7.752,0,0,0,46.846-.02a14.461,14.461,0,0,0,.938-5.586v-.2a14.054,14.054,0,0,0-.962-5.552A8.387,8.387,0,0,0,44.609-14.6l.449-1.26h.059a8.164,8.164,0,0,1,3.34,3.555A12.936,12.936,0,0,1,50.02-5.781Zm3.242-7.538.08.889a2.2,2.2,0,0,1,.76-.738,2.029,2.029,0,0,1,1.034-.265,1.94,1.94,0,0,1,1.5.584,2.619,2.619,0,0,1,.538,1.82V-7H55.791v-3.862a1.384,1.384,0,0,0-.288-.988,1.175,1.175,0,0,0-.874-.293,1.45,1.45,0,0,0-.723.179,1.5,1.5,0,0,0-.524.493V-7H52v-6.163Z" transform="translate(-9690 -7147)" fill="#111e61"/>
  </g>
</svg>
